<?xml version="1.0" encoding="utf-8"?>
<!-- Generator: Adobe Illustrator 19.1.0, SVG Export Plug-In . SVG Version: 6.00 Build 0)  -->
<svg version="1.1" id="Layer_1" xmlns="http://www.w3.org/2000/svg" xmlns:xlink="http://www.w3.org/1999/xlink" x="0px" y="0px"
	 viewBox="0 0 141 164" style="enable-background:new 0 0 141 164;" xml:space="preserve">
<style type="text/css">
	.st0{fill:#6A8783;}
	.st1{fill:none;}
	.st2{fill:#D3D1D4;}
	.st3{font-family:'LaoMN';}
	.st4{font-size:12px;}
	.st5{fill:#E4E4EC;}
	.st6{fill:#E4E4EB;}
	.st7{fill:#E5E5EC;}
	.st8{fill:#E2E2E9;}
	.st9{fill:#D7D5D8;}
	.st10{fill:#DAD9DC;}
	.st11{fill:#D6D5D7;}
	.st12{fill:#D6D4D8;}
	.st13{fill:#DAD8DC;}
	.st14{fill:#DFDEE2;}
	.st15{fill:#D6D5D8;}
	.st16{fill:#D8D6D9;}
	.st17{fill:#D6D4D7;}
	.st18{fill:#E5E5ED;}
	.st19{fill:#E3E3EA;}
	.st20{fill:#E3E3EB;}
	.st21{fill:#AEB7BE;}
	.st22{fill:#E2E1E8;}
	.st23{fill:#90A5AD;}
	.st24{fill:#D4D3D6;}
	.st25{fill:#A6B1B9;}
	.st26{fill:#D5D4D7;}
	.st27{fill:#D6D7DB;}
	.st28{fill:#DEDCE1;}
	.st29{fill:#E1E1E8;}
	.st30{fill:#E0DFE6;}
	.st31{fill:#E4E3EB;}
	.st32{fill:#AFBBC2;}
	.st33{fill:#D9D7DA;}
	.st34{fill:#E1E1E6;}
	.st35{fill:#CFCFD3;}
	.st36{fill:#DEDDE2;}
	.st37{fill:#DFDFE4;}
	.st38{fill:#DDDCE1;}
	.st39{fill:#DEDEE3;}
	.st40{fill:#D8D7DB;}
	.st41{fill:#DAD8DD;}
	.st42{fill:#D5D3D6;}
	.st43{fill:#D8D6DA;}
	.st44{fill:#E1E0E7;}
	.st45{fill:#D9D7DB;}
	.st46{fill:#DFDEE3;}
	.st47{fill:#DCDADF;}
	.st48{fill:#90A4AC;}
	.st49{fill:#7898A1;}
	.st50{fill:#9DACB5;}
	.st51{fill:#A2B3BB;}
	.st52{fill:#247684;}
	.st53{font-size:10px;}
</style>
<rect class="st0" width="141" height="164"/>
<rect x="36.3" y="15.5" class="st1" width="68.3" height="11.8"/>
<text transform="matrix(1 0 0 1 36.2573 25.0394)" class="st2 st3 st4">Nor-COAST</text>
<g>
	<path class="st2" d="M76.7,38.8c8.6,3.1,14.7,8.6,17.7,17.5c1,3,2.3,5.9,3.8,8.6c6.3,11.7,5.7,23.6,1.3,35.6
		c-3.1,8.6-13.4,15.4-22.5,15.3c-4.8,0-9.4-1.3-14.5-0.3c-6.1,1.3-11.3-2.9-16-6.7c-0.4-0.9,0.2-1.3,0.8-1.6c1.9-0.5,3.5,0.6,5.3,1
		c2.1,0.5-0.1-0.8,0.4-1.1c-0.1-0.4-0.1-0.9,0-1.3c2-2.7-1.3-4.6-1.2-7c0.2-1.2,0.9-2.1,2.2-2.4c2.1,0.2,1.6,2.3,2.5,3.4
		c0.6,0.9,0.9,2,1.6,2.9c1,1.3,0.9-0.1,1.2-0.6c0.8-1.2,1.9-0.8,3.1-0.6c4.2,0.8,1.1-1.4,1-2.4C63.1,97.9,64,97,64.3,96
		c0.1-1.3,1.3-3.5-1.8-2.3c-1.7,0.6-3.3,0.9-4.4-1c-0.6-1.7-0.1-3.3,0.6-4.8c1.8-2.8,3.2,0.1,4.8,0.4c1.5-1.2,0-2.2-0.2-3.3
		c0.6-1.4,1.3-2.7,1.5-4.2C66,77.4,66,74,65.3,70.6c-0.2-1.1-0.2-2.5-1.3-3.1c-5.3-2.5-1.4-4.2,0.4-6.1c0.1-0.6,0.2-1.3,0.3-1.9
		c-0.1-4.5-1.1-9.1,2.3-12.9c1.1,0.1,1.9,0.7,2.4,1.7c1.3,4.9,0,10,0.9,14.9c0.2,0.4,0.5,0.9,0.6,1.4c0.3,1,0.1,1.9,0,2.9
		c-1.7,6.2,0.3,12.5,0,18.7c-0.1,2.1,1.4,2.3,2.8,2.8c0.4,0.2,0.8,0.4,1.2,0.8c0.4,0.6,0.6,1.2,0.7,1.9c0.2,1.9-0.1,3.9,1.4,5.4
		c0.5,0.6,1.1,1.3,1.6,2c0.2,0.3,0.3,0.7,0.4,1c-0.3,1.6,0.6,0.2,0.9,0.4c0.9,0.1,1.6,0.6,2,1.3c0.2,0.4,0.2,0.9,0.2,1.3
		c0,0.6-0.7,0.8-0.7,1.4c0.6-0.5,1.1-1.1,1.6-1.6c0.9-0.8,2.1-0.5,3.2-0.7c0.4-0.1,0.8-0.2,1.2-0.3c1.6-0.2,3.3-0.3,4.3-2
		c2.6-2.5,4-5.8,5.9-8.7c0.7-1.8-1.8-0.1-1.6-1.4c-3.7-7.4-5.5-8.4-12.4-6.8c-2.2,0.9-3.9,3.6-6.9,2.3c-1-1.3,0.3-2,0.8-2.8
		c0.2-0.4,0.7-0.9,0.3-1.1c-0.5-0.4-1,0.3-1.6,0.5c-2.7,0.7-2.6-1-2.5-2.8c2.2-2.2,2.6-4.2,0.3-7c-3.2-4.1-2.5-5.2,2.6-7.4
		c1.4,0.3,1.6,1.3,1.6,2.5c1.2,1.4,1.3-0.9,2.1-0.6c0.6-0.3,1.3-0.3,2-0.2c1.4,0.2,2.9,0.8,3.9-0.9c0.5-1.8-1-2.9-1.5-4.3
		c-0.8-1.1-0.5-2.6-1.6-3.6c-0.5,0.2-1.1,0.2-1.6,0.2c-0.4-0.1-0.8-0.2-1.1-0.4c-0.3-0.3-0.6-0.6-0.8-0.9c-0.3-0.6-0.5-1.2-0.6-1.8
		c0-1.1,0.4-2.1,0.8-3.1c0.5-1.6,1.7-2.9,2.5-4.4c-0.1-1.1-0.9-1.6-1.6-2.3c-0.8-0.7-1.5-1.7-2.4-0.1c-1,0.8-2,1.1-3.2,0.4
		C73.1,40.5,73.4,39.4,76.7,38.8z"/>
	<path class="st5" d="M66.7,46.8c-0.3,4.3-0.7,8.7-1,13c-2.5,4-6,0.8-9.5,1.5c1.4,1.2,2.5,2.8,0.4,3.8c-2.7,1.3-4.4-0.3-5.6-2.6
		c-0.5-3.4,1.5-5.1,4.2-6.4c2-0.5,3.8,0.1,5.5,1c-1.8-1.4-4-1.1-6-1.5c-2.7-2.3-0.1-3.4,1.2-4.5c1.6-1.3,3.8-2.1,3.5-4.8
		c-0.3-1,0.2-2.8-2-2.1c-1.9-0.1-3.5-0.8-4.6-2.4c1.6-1.7,3.7-2.6,6-3c1.3,0.9,3-0.4,4.3,0.8C64.1,42.1,69.7,42.2,66.7,46.8z"/>
	<path class="st5" d="M37.6,70.8c0.1-1.4-0.4-2.9,1-4c1.4,0.1,2.6-0.1,2.5-2c-0.8-5.4,3.1-2.6,5.2-3c1.4-0.1,2.9-0.2,4.2,0.5
		c0.3,0.3,0.6,0.7,0.7,1.2c0,1.1-0.6,1.8-1.6,2.2c-0.3,0.1-0.7,0-0.9,0.4c0.3-0.1,0.6-0.1,1-0.1c1.7,1,3.4,1.3,4.6-0.7
		c3.9,1,4.4,2.4,3.1,7.4c-4.7,3.7-6.8-1.9-8.7-2.6c2.5,0.2,1.3,4,2.9,6c1.4,0.9,3,1.5,2.9,3.6c-0.6,2.4-2,4-4.5,4.4
		c-2-0.7-2.7-2.6-2.9-4.2c-0.3-2.6-2-3.8-3.9-5C42.2,72.4,37.7,74.5,37.6,70.8z"/>
	<path class="st6" d="M79.7,54.8c0.3,0.3,0.7,0.7,1,1c-2.7,3-5.6,5.3-9.9,2.6c-3.2-3.1-0.8-7.2-1.7-10.7c-0.9-3.8,1.6-6.6,2.6-9.9
		c2.1-1.5,3.5,0.2,5.1,1c-3.2,1.5-0.6,4-1,6c2.1,1.1,1.5,3,1.5,4.8C77.1,51.7,77.2,53.9,79.7,54.8z"/>
	<path class="st7" d="M52.7,41.8c1.7,0.7,3.3,1.3,5,2c1.6-0.3,1.6,0.8,1.9,1.8c-0.6,4.2-3.4,6.6-9,7.9c-0.5-0.1-0.9-0.4-1.3-0.8
		c-0.6-1.1-0.8-2.3-0.2-3.5c0-0.5,0.8-0.6,0.7-1.2c-0.3,0.4-0.6,0.7-1,1c-0.4,0.2-0.8,0.1-1.2-0.2C47.7,45.3,50.9,44.1,52.7,41.8z"
		/>
	<path class="st8" d="M45.7,62.8c-0.4,0.6-0.9,0.9-1.6,0.4c-0.6-0.4-1.1-1.6-1.9-0.6c-0.3,0.4,0.3,1.4,0.4,2.2c-1,1.6-2.2,2.3-4,1
		c0.3-2.3,1.3-4.3,2.9-6.1c0.8,0,1.6-0.2,2.3-0.5c2.3-1.9-0.6-5.4,2.2-7.1c1.3-0.6,2.4-0.3,3.5,0.6l0,0c5.2,2,5.2,4.1-0.3,8.2
		C48.4,62.2,46.8,61.9,45.7,62.8z"/>
	<path class="st9" d="M47.7,107.8c-0.3,0.3-0.7,0.7-1,1c-5.6-4-9.3-9.3-10.9-16c0.4-0.3,0.8-0.4,1.3-0.3c2.2,1.5,5.2,2.1,5.9,5.3
		c-1.6,1.9,0.6,2.6,1.3,3.8c-0.2-1-1.3-1.8-0.7-3c0.6-0.4,1.3-0.5,2-0.3c2.3,1,4.2,2.4,4.7,5.1c0,0.5-0.1,0.9-0.3,1.3
		C49.6,106.1,46.4,105.2,47.7,107.8z"/>
	<path class="st10" d="M71.6,37.8c0.4,3.2-1.7,5.9-2,9c-0.4,0.3-0.4,0.9-1,1c-0.7-0.3-1.3-0.7-2-1c0-2,0.2-4-2.8-4.1
		c-1.8-0.1-2-1.4-1.2-2.9c0.2-1.2,1.3-1.3,2-2c2.1,0.7,2.1,3.2,3.7,4.4C70.2,41.3,69.3,38.3,71.6,37.8z"/>
	<path class="st11" d="M36.7,92.8h-0.5c0,0-0.5,0-0.5,0c-0.3-2.7-1.4-5.3,0-8c0.3-0.3,0.7-0.6,1-0.9c2.5-0.9,3.2,0.8,2.7,2.5
		c-0.8,2.3,0.4,4.1,0.5,6.1C38.9,93.8,37.8,93.6,36.7,92.8z"/>
	<path class="st12" d="M37.6,70.8c1.1,0.5,1.6,2.7,3.1,1.7c4.1-3,2.6,0.8,3,2.3c0.4,0.9-0.2,1.1-0.8,1.3c-1.2-0.1-2.4-1.2-3.6,0
		c-0.9,0.9-0.6,3.4-3,2.4c-0.1-1-0.3-1.9,0.4-2.8C36.5,74,36.8,72.3,37.6,70.8z"/>
	<path class="st9" d="M36.6,75.8c0,1,0,2,0,3.1c1.1,1,1.8,0.2,2.5-0.6c2.5,0,2.6,0.2,2.4,4.1c-0.2,0.7-0.5,1.3-1.2,1.6
		c-1.3,0.1-2.9-1.4-3.8,0.8c-0.3,0-0.7,0-1,0C36,81.8,34.7,78.6,36.6,75.8z"/>
	<path class="st13" d="M49.7,52.8c-1.3,0-2.7,0-4,0c-0.3,0.5-0.6,0.5-1,0c1-1.3,2-2.7,3-4c0.3,0,0.7,0,1,0c0.3-0.4,0.7-0.4,1,0
		C49.7,50.2,49.7,51.5,49.7,52.8z"/>
	<path class="st14" d="M43.7,60.8c-0.8,0-1.6-0.2-2-1c1.3-1.4,0.5-3.7,2-5C46.2,56.8,46.9,58.8,43.7,60.8z"/>
	<path class="st15" d="M43.7,60.8c2-2,1.3-4,0-6c0.4-0.7,0.7-1.3,1.1-2c0.3,0,0.6,0,1,0c0.2,1.4,0.3,2.9,0.7,4.3
		C46.9,59.5,45.9,60.6,43.7,60.8z"/>
	<path class="st16" d="M64.7,37.9c-0.7,0.7-1.3,1.3-2,2c-1.2-0.9-3.4,2.1-4-1C60.5,37.7,62.6,37.7,64.7,37.9z"/>
	<path class="st17" d="M38.7,65.8c1.3-0.3,2.6-0.7,4-1c0.1,1.6-0.2,2.8-2.1,3.2c-1.2,0.3-1.8,0.1-1.9-1.2
		C38.7,66.5,38.7,66.2,38.7,65.8z"/>
	<path class="st18" d="M40.7,82.8c0-1.3,0.3-2.7-0.2-3.7c-0.5-0.9-0.6,0.3-0.8,0.7c-2.7-1.2-1.3-3.2-1-5c1.9-2,3-0.6,4,1
		c4.1,1.3,4.3,5.6,6.4,8.4c1.4,1.1,3.1,1.4,4.9,1.4c0.7,0,1.4,0,2.1,0c1.5,0.2,3,0.5,3.6,2.2c-0.3,1.7-0.7,3.3-1,5
		c-0.4,0.3-0.8,0.4-1.3,0.4c-1.1,0.1-1.1-3.5-3.4-0.7c-1.8,2.2-4.9,0.6-7.4-0.1C42.1,90.8,41.4,86.8,40.7,82.8z"/>
	<path class="st6" d="M65.7,61.8c-0.5,1.9-0.5,1.9-3.4,2.7c5,3.1,6.3,9.7,3.4,17.3c-1.8-1.2-3.6-2.6-6-1.7c-1.6,0.2-3.3,0.9-4.6-0.7
		c-0.4-0.9-0.9-1.7-0.6-2.7c0.5-0.5,1.2-0.8,1.9-1.1c2.9-1.7,1.5-4.3,1.4-6.7C57.3,62.5,59.1,60.8,65.7,61.8z"/>
	<path class="st18" d="M76.7,64.8c-3.9,2.3-3.6,5-0.7,7.8c3.1,3,2.2,4.8-1.3,6.2c-2,3.6,1.6,7.3,0,10.9c-3.6,0.4-5.3,0.4-4.8-4.8
		c0.6-5.9-1.1-12.1-0.1-18.1c2-1.3,3.1-3.8,6-3.6C76.4,63.5,77,63.9,76.7,64.8z"/>
	<path class="st19" d="M49.7,103.8c-0.5-2.4-3-3.1-4-5c0-0.2-0.1-0.5-0.1-0.7c-0.1-1.8-0.2-3.5,1.4-4.8c5.8-0.4,6.5,0.3,5.7,5.6
		c0.5,2.3,5.1,4,1,7C52.1,105.6,51,104.5,49.7,103.8z"/>
	<path class="st17" d="M65.7,61.8c-6.6-0.8-7.8,2.6-6.8,9.2c0.6,4.1,0.7,4.2-2.3,5.8c-0.7-0.8-1-1.7-0.8-2.7
		c0.2-0.5,0.5-0.9,0.8-1.2c-0.4-2.6,2.1-6.4-3-7c-0.3,0.3-0.7,0.4-1.2,0.3c-0.8-0.5-1.3-1.2-1.3-2.1c0-0.5,0.1-0.8,0.5-1.2
		c1.7,0.8,3.2,3.3,5.4,0.9c-0.4-1.8-2.4-0.9-3.1-2.1c1.6-1.6,3.1-2.9,5.6-1.4c2,1.2,4.1,0.7,6.1-0.4C65.7,60.5,65.7,61.2,65.7,61.8z
		"/>
	<path class="st20" d="M59.7,87.8c-1.2-0.7-2.5-1.2-4-1c-0.2-1,0.1-1.5,1.2-1.3c-0.4-0.8-0.9-0.1-1.3,0c-1.2,0.2-2.2,0.2-3.1-0.7
		c0.5-4.3,4.4-3.5,7.1-4.6c3.3-0.1,3.5,2.4,4.1,4.7c1.2,1.1,3.7,1.6,1.9,3.9c-1.7,2.3-3.1,1-4.4-0.8C60.9,87.4,60.3,87.1,59.7,87.8z
		"/>
	<path class="st8" d="M55.7,99.8c-0.3-1-0.7-2-1-3c-0.9-0.5-1.5-1.2-0.9-2.2c0.8-1.4,2-1.1,3.2-0.5c2.2,1.6,5.3,1.9,6.7,4.7
		c1.6,0.8,3.8,1.6,2.7,3.8c-1.1,2.4-2.8,0.4-4.1-0.1c-1-0.3-1.8-0.9-2.6,0.2C57.4,103.1,57.5,100.1,55.7,99.8z"/>
	<path class="st8" d="M73.1,96c-0.4,1.2-0.5,2.1,0.3,2.5c3.2,1.6,0.7,3.2,0,4.7c-0.4,0.9-1,1.2-1.9,0.3c-1.6-1.5-3.1-3.1-2.7-5.5
		c0.2-1.5,2.7-2.9,0.1-4.7c-0.7-0.5,0.8-1.5,1.7-2c1.6-0.9,1.4,0.5,1.7,1.3C72.8,93.9,74.1,94.8,73.1,96z"/>
	<path class="st21" d="M98.6,90.8c-0.9,4-3.4,7-5.9,10.1c-1.6,1.8-4.1,1-6,2l0,0c-1.7-0.1-3.4-0.2-5-1c-0.7-0.3-1.3-0.7-2-1
		c-0.6,0-0.8-0.5-1.1-0.9l0-0.1c-0.7-0.8-0.9-1.7-0.4-2.7c1.1-1.1,2.1-0.4,3.1,0.1c5.9,3,7,2.9,11.5-2
		C94.7,93.6,94.8,89.8,98.6,90.8z"/>
	<path class="st22" d="M87.7,65.8c-1.3,2.1-2.9,2.8-5,1c-0.7-0.8-1.3-0.8-2,0c-0.6,0.8-1.1,1.6-1.7,2.3c-0.4,0.6-0.9,1.7-1.8,1
		c-1-0.8-0.4-1.7,0.4-2.4c1.1-1.6,0-3.1-0.1-4.7c-0.3-2.7,0-5.3,3.1-6.3c0.3,0,0.7,0,1,0c1.3,1.1,1.1,2.9,1.9,4.3
		c0.8,1.3,1.1,3,3,3.3C87.1,64.7,87.6,65.2,87.7,65.8z"/>
	<path class="st17" d="M79.7,54.8c-5.7,1.5-2.7-3.5-3.8-5.4c-0.6-1,1-3-0.2-4.6c1-0.3,2-0.7,3-1c1-0.8,2,1,3,0c1,1,2,2,3,3
		c-2.1,1.1-4.6,1.8-4,5C80.3,52.8,80,53.8,79.7,54.8z"/>
	<path class="st23" d="M98.6,90.8c-2.8,0.6-3,3.7-4.9,5.1c-0.9-0.7-1.1-1.7-1.3-2.7c-0.4-4.6-2.6-7.2-7.5-7.1
		c-1.1,0-2.3-0.2-3.1-1.1c-0.6-1.6,0.8-1.5,1.6-2c6.6-2,8.2-1.2,13.4,6.8C97.3,90.3,98.8,88.9,98.6,90.8z"/>
	<path class="st24" d="M80.7,56.8c-3.6,2.9-0.6,7.7-3,11c0-1.1,0.2-2.3-1-3c-0.3-0.3-0.7-0.7-1-1c-0.3-0.3-0.7-0.5-1.1-0.7
		c-1.6-1.3-4.1-1.9-4.4-4.5c0.3-0.7,0.6-1.2,1.4-0.8c3.8,2.7,5.9-1.8,9-2C80.7,56.2,80.7,56.5,80.7,56.8z"/>
	<path class="st25" d="M96.7,89.8c-1.7,0.1-2.1-1.2-2.8-2.4c-2.4-4.2-5.8-5.4-10.3-3.6c-0.6-0.7-0.6-1.3,0-2
		C91.3,79.9,95.2,82.3,96.7,89.8z"/>
	<path class="st26" d="M56.7,94.8c-2.4-1.1-3-0.3-2,2c-1,0.4-1.6,1.1-2,2c0-4.1-2-5.8-6-5c-0.5-0.4-0.6-1-0.4-1.6
		c0.1-0.1,0.3-0.3,0.4-0.4c3.2-0.1,7,2.2,9.2-2.2c1.4,0.8,0.4,2.7,1.8,3.2c0.7,0.6,1.7,1.1,1,2.3C57.9,95.3,57.3,95.4,56.7,94.8z"/>
	<path class="st27" d="M74.6,89.8c-0.9-3.7-3.7-7.3,0-10.9c0.1,1.2-0.5,3.1,2,2c1.1,0.2,1.8,0.9,2,2c-0.7,0.7-1.3,1.3-2,2
		c0.7,1.3,0.5,2.6,0.2,3.9C76.4,89.6,75.8,90.3,74.6,89.8L74.6,89.8z"/>
	<path class="st19" d="M58.7,94.8c-0.3-0.7-0.7-1.3-1-2c0.3,0,0.7,0,1,0c2.8,1.5,4.6-1.8,7.5-1.6c-0.2,1.9-0.3,3.8-0.5,5.6
		C62.7,98.4,60.7,96.6,58.7,94.8z"/>
	<path class="st22" d="M47.7,107.8c-0.2-0.8-1.9-1-1.1-2.2c0.7-1,2-0.8,3.1-0.8c1.7-0.1,2.7,1.2,4,2c0.3,1.4,3.6,0.6,2.3,2.8
		c-1.1,2-2.4,0.1-3.7-0.4C50.8,108.7,49.2,108.3,47.7,107.8z"/>
	<path class="st28" d="M63.7,84.8c-1.7-0.9-1.4-3.9-4-4c-0.5-0.7-0.6-1.3,0-2c2.8-0.6,5.2-0.4,6,3C65,82.8,64.3,83.8,63.7,84.8z"/>
	<path class="st29" d="M71.7,57.8c-0.3,0.3-0.7,0.7-1,1c-0.3,2,0.9,4.2-1,6c-2.2-5.6-0.4-11.3-1-17c0.3-0.3,0.7-0.7,1-1
		C70.3,50.5,68,54.7,71.7,57.8z"/>
	<path class="st30" d="M65.2,109.1c-0.4,2.2-1.6,2.8-3.3,2.7c-1.5-0.1-3.1,0-3.1-2.2c0-0.9,1.3-1.8,1.3-1.6
		C61.1,110.9,63.7,108.2,65.2,109.1z"/>
	<path class="st31" d="M82.7,72.8c-0.1,2.3,4,2.1,3,5c-0.3,1-1.5,2.1-1.6,1.4c-0.4-3-5.2-4.6-2.4-8.4C83.5,70.8,83.3,71.7,82.7,72.8
		z"/>
	<path class="st5" d="M55.7,99.8c2.6-0.7,2.8,1.9,4,3c0.8,0.5,2,0.9,1.1,2.1c-0.7,0.9-1.6,0.7-2.5,0
		C56.6,103.6,56.7,101.4,55.7,99.8z"/>
	<path class="st32" d="M76.6,88.8c-0.9-1.3-0.8-2.6,0.1-3.9c2.9,0.3,4.5-2.3,7-3c0,0.7,0,1.3,0,2c-0.8,0.1-1.6,0.2-1.9,1.1
		c-0.1,0.2-0.1,0.4-0.2,0.6c-0.8,1.3-2.1,2.1-3.2,3.1c-0.3,0.3-0.7,0.4-1.2,0.5C77,89,76.8,88.9,76.6,88.8z"/>
	<path class="st32" d="M74.7,89.9c0.6-0.4,1.3-0.7,1.9-1.1c0,0,0.1,0.1,0.1,0.1c1.1,0.8,1.7,1.8,2,3c0.2,1.6,1.3,3.3,0,4.9
		c0,1,0,2,0,2.9c-1-0.3-1.6-1-2-1.9c-1.2-1.8-0.4-4.3-2-6C74.7,91.1,74.7,90.5,74.7,89.9z"/>
	<path class="st6" d="M69.7,64.8c0.3-2-0.8-4.2,1-6c1.7,1.3,3.4,2.7,5,4c-1.5,1-3.4,1.1-5,2C70.3,64.8,70,64.8,69.7,64.8z"/>
	<path class="st5" d="M80.7,51.8c-2.6-0.9-2.7-1-1.6-2c1.7-1.3,2.6-4.1,5.5-3C83.3,48.5,82,50.2,80.7,51.8z"/>
	<path class="st33" d="M58.7,94.8c2.4,0.3,4.2,2.9,7,2c-0.7,0.7-1.3,1.3-2,2c-2.3-1.3-5.1-2-7-4C57.3,94.8,58,94.8,58.7,94.8z"/>
	<path class="st16" d="M70.7,64.8c0.6-3.2,3.2-1.6,5-2c0,0.3,0,0.6,0,0.9c-2.2,0.7-3.6,2.8-6,3.1C70,66.2,70.3,65.5,70.7,64.8z"/>
	<path class="st34" d="M82.7,72.8c0-0.8-0.2-1.6-1-2c1.6-1.9,4.2-0.4,6.1-2.2C87.6,72.7,83.6,70.6,82.7,72.8z"/>
	<path class="st35" d="M74.7,91.8c3.2,1.2,2.3,3.7,2,6C73.9,96.5,74.8,94,74.7,91.8z"/>
	<path class="st36" d="M86.5,56.1c4-0.4,4.3,2.4,5.6,3.9C89.6,60,88.9,57.6,86.5,56.1z"/>
	<path class="st36" d="M83.7,56.8c0.3-0.5,0.5-1.2,0.9-1.5c0.5-0.3,1,0.4,0.7,0.8c-0.9,1.7,0.3,3.1,0.4,4.7
		c-0.4,0.4-0.9,0.5-1.4,0.5c-0.5-0.1-0.9-0.4-1.2-0.9C82.6,59.1,82.7,57.9,83.7,56.8z"/>
	<path class="st37" d="M78.7,82.8c-1-0.4-1.6-1.1-2-2c0.6-0.8,1-2.5,2.3-1.3C79.5,80.1,81.3,82,78.7,82.8z"/>
	<path class="st30" d="M87.9,76.5c-0.1-2.7,1-3.8,3.3-4.5C90.8,74.1,90,75.4,87.9,76.5z"/>
	<path class="st24" d="M83.7,56.8c0,1.3,0,2.7,0,4c-0.1,0.6-0.4,0.9-1,1c-1.7-1.4-0.7-3.3-1-5C82.3,56.8,83,56.8,83.7,56.8z"/>
	<path class="st8" d="M84.7,60.8c0.3,0,0.7,0,1,0c0.8,1.6,3.6,2.4,2,5c-0.3-0.3-0.7-0.7-1-1C85,64,84,62.8,84.7,60.8z"/>
	<path class="st8" d="M83.6,102.9c-0.2,2.8-2.7,2.3-4.6,3c0.9-1,1.7-2,2.6-3C82.3,102.2,83,102.3,83.6,102.9z"/>
	<path class="st9" d="M53.7,106.8c-1.6-0.2-3-0.7-4-2c0-0.3,0-0.7,0-1c1.7-0.1,3.4-0.2,4,2C53.7,106.2,53.7,106.5,53.7,106.8z"/>
	<path class="st36" d="M94,80c0.3-1.8,1.3-2.2,2.8-1.9c0.2,0,0.5,0.6,0.4,0.7C96.5,80.2,95.3,80.1,94,80z"/>
	<path class="st35" d="M86.7,102.8c1.8-1.4,4-1.3,6-2C91.4,103.6,88.8,102.6,86.7,102.8z"/>
	<path class="st35" d="M83.6,102.9c-0.6,0-1.3,0-1.9,0c0-0.3,0-0.7,0-1c1.7-0.1,3.4,0.1,5,1C85.7,104.4,84.6,103.1,83.6,102.9z"/>
	<path class="st38" d="M81.7,43.8c-1,3.1-2-0.3-3,0C79.7,40.7,80.7,44.2,81.7,43.8z"/>
	<path class="st39" d="M78.6,99.9c0.4,0.3,0.7,0.6,1.1,0.9c-0.6,1-1.1,2.2-2.6,2.3C76.7,101.5,78.4,101.1,78.6,99.9z"/>
	<path class="st40" d="M80.7,66.8c0.2-0.8-0.6-2.1,0.8-2.2c1.1,0,1.1,1.3,1.2,2.2C82,66.8,81.3,66.8,80.7,66.8z"/>
	<path class="st29" d="M71.1,108.8c1-0.6,1.7,0.1,2.5,0.3c-0.1,0.2-0.2,0.6-0.3,0.6C72.5,109.8,71.4,110.1,71.1,108.8z"/>
	<path class="st17" d="M51.7,62.8c0,0.3,0,0.7,0,1c-0.3,0.4-0.7,0.4-1,0c0-0.3,0-0.6,0-1c-0.6-0.7-1.8-0.9-2-2
		c0.3-0.6,0.5-1.5,0.9-1.7c4.9-2.1,2.9-4.2,0.1-6.3c3.8-1.3,8.4-1.6,9-7c0.7-0.6,1.3-0.6,2,0c0.5,2.9-0.7,4.7-3.4,5.8
		c-1.3,0.5-3.4,0.8-2.6,3.2c0.6,0.5,1.6,0.8,1,2C53.5,58.3,51.4,59.8,51.7,62.8z"/>
	<path class="st41" d="M55.7,56.8c-0.3-0.7-0.7-1.3-1-2c3.3-0.3,5.9,1.2,9.4,3.8C60.5,58.1,58.3,56.2,55.7,56.8z"/>
	<path class="st17" d="M60.6,45.8c-0.7,0-1.3,0-2,0c0-0.8-0.2-1.6-1-2c-0.1-0.7-1.2-2.2,0.8-1.5C59.8,42.9,60.7,44.2,60.6,45.8z"/>
	<path class="st42" d="M59.7,78.8c0,0.7,0,1.3,0,2c-2.1,1.7-5.7,0.9-7,4c0.6,0.5,1.6,0.8,1,2c-2,0.1-3.7-0.4-5-2c-0.4-1,0.1-1.3,1-1
		c1.7-1,3-2.3,4-4c0.5-0.6,0.9-1.6,2-1C57,80.6,58.3,78.5,59.7,78.8z"/>
	<path class="st12" d="M56.7,72.8c0,0.3,0,0.7,0,1c-1.5,1.5-4,1-5.4,2.7c-0.2,0.1-0.4,0.2-0.6,0.3c-0.7-0.1-1.3-0.2-1.4-1.1
		c-0.3-4.3-0.3-4.3-4.1-5.6c3.5-1.5,3.9-1.8,5.1,0.2C51.9,73.2,54.2,72.8,56.7,72.8z"/>
	<path class="st43" d="M49.7,83.8c-0.3,0.3-0.7,0.7-1,1c-2-3-4-6-6-9c0.3-0.3,0.7-0.7,1-1C48.8,75.7,47.7,80.8,49.7,83.8z"/>
	<path class="st44" d="M50.7,63.8c0.3,0,0.7,0,1,0c0.3,0.7,0.7,1.3,1,2c-0.1,3.1-2.4-0.6-3,1c-1,0-1.9,0-3.6,0
		C48,65.6,49.3,64.7,50.7,63.8z"/>
	<path class="st13" d="M49.7,66.8c0.5-1.7,2.3,0.2,3-1c0.3,0,0.7,0,1,0c-0.2,1.1-0.1,3-0.5,3.1C51.6,69.3,51.1,67.2,49.7,66.8z"/>
	<path class="st45" d="M55.7,78.8c-0.7,0.3-1.3,0.7-2,1c0.2-2.2-2.3-1.7-3-3c0,0,0,0,0,0c1.3-0.7,2.7-3.4,4,0
		C55,77.5,55.3,78.2,55.7,78.8z"/>
	<path class="st42" d="M48.7,60.8c1,0.4,1.6,1.1,2,2c-1.7,0-3.3,0-5,0C45.8,60.8,48,61.9,48.7,60.8z"/>
	<path class="st14" d="M49.7,48.8c-0.3,0-0.7,0-1,0c0.9-1.5,1.8-3,4.1-2.8C52.9,48.3,50.6,47.9,49.7,48.8z"/>
	<path class="st46" d="M36.7,92.8c1.1,0,2.3,0.2,3-1c1.5-0.7,3-0.4,4.6-0.5c0.5,0.2,0.8,0.5,0.9,0.9c1,0.9-2.5,2,0.3,3.1
		c1.1,0.4,1.1,2.2,0.3,3.5c0,0,0,0,0,0c-0.7,0-1.3,0-2,0c-0.6-0.1-0.9-0.5-1-1C41,95.7,38,95.3,36.7,92.8z"/>
	<path class="st20" d="M42.7,97.8c0.3,0.3,0.7,0.7,1,1c1.1,1.4,2.2,2.8,3.9,4.9c-4.1,0.1-5.8-2.6-7.3-4.7C39.5,98,41.7,98,42.7,97.8
		z"/>
	<path class="st20" d="M43.7,91.8c-1.3,1.8-2.7,0.5-4,0c-1.7-1.2-3.9-2.1-1.5-4.8c0.7-0.8,1.5-3.2-1.5-2.3c0.4-2.2,1.3-2.6,3-1
		C42.2,85.9,43.1,88.8,43.7,91.8z"/>
	<path class="st29" d="M38.7,74.8c0.3,1.7-0.7,3.6,1,5c-1.6,1.7-2.6,1.2-3-1C38.3,78,37,75.7,38.7,74.8z"/>
	<path class="st47" d="M43.7,91.8c-1.3-2.7-2.7-5.3-4-8c0.3-0.3,0.7-0.7,1-1c2.6,2.6,2.2,7.2,6,9c0,0,0,0,0,0c-0.7,0.6-1.3,0.6-2,0
		C44.3,91.8,44,91.8,43.7,91.8z"/>
	<path class="st16" d="M53.7,86.8c-0.3-0.7-0.7-1.3-1-2c1.7,0,3.3,0,5.5,0c-1.1,0.9-1.8,1.4-2.5,2C55,86.8,54.3,86.8,53.7,86.8z"/>
	<path class="st5" d="M54.7,76.8c-1.3-1.8-2.7,0.4-4,0c0.5-4,3.6-2.8,6-3c0,1,0,2,0,3C56,76.8,55.3,76.8,54.7,76.8z"/>
	<path class="st2" d="M44.7,91.8c0.7,0,1.3,0,2,0c0,0.7,0,1.3,0,2c-0.3,1.7,0.7,3.6-1,5c-0.2-0.9-0.1-2.5-0.6-2.7
		C41.8,94.9,43.9,93.3,44.7,91.8z"/>
	<path class="st48" d="M78.7,96.8c-0.3-1.7-0.6-3.3-0.9-5c0.5-0.6,1.2-0.6,1.9-0.4c0.6,0.4,0.9,0.9,1.3,1.5c3.4,5,5.2,5.2,9.9,1.4
		c0.8-0.7,1.4-2,2.8-1.5c0,1,0,2,0,3C88.8,101.9,87.1,102,78.7,96.8z"/>
	<path class="st2" d="M84.7,60.8c0.7,1.3,1.3,2.7,2,4c-4.2,2.9-2.3-2.5-4-3c0.3-0.3,0.7-0.7,1-1C84,60.8,84.3,60.8,84.7,60.8z"/>
	<path class="st49" d="M93.7,92.8c-1,1.1-1.8,2.4-2.9,3.3c-4.8,4-8.9,2.4-11.1-4.3c-0.5-1.3-2.1-2.5-0.5-4.1
		c1.1-0.8,1.8-1.8,2.5-2.9c0,0,0,0,0,0C90.8,84.8,92.5,85.9,93.7,92.8z"/>
	<path class="st50" d="M79.7,87.8c-1.9,1.3,2.1,2.7,0,4c-0.7,0-1.3,0-2,0c-0.3-1-0.7-2-1-3c0.3-0.3,0.7-0.7,1-1
		C78.3,87.3,79,87.2,79.7,87.8z"/>
	<path class="st51" d="M79.7,87.8c-0.7,0-1.3,0-2,0c1.3-1,2.7-2,4-3C81.7,86.3,81,87.2,79.7,87.8z"/>
	<path class="st52" d="M81.6,90.3c-0.2-2.7,1.9-4.3,4.5-4.3c2.9,0,5.3,1.9,5.1,4.9c-0.2,2.8-2,5-5.3,4.8
		C82.9,95.6,81.6,93.8,81.6,90.3z"/>
	<line class="st1" x1="24.7" y1="108.2" x2="24.7" y2="100"/>
</g>
<text transform="matrix(0.7668 0 0 1 25.2221 134.1652)" class="st2 st3 st53">Imaging Scoring Systems</text>
</svg>
